<?xml version="1.0" encoding="utf-8"?>
<!-- Generator: Adobe Illustrator 25.4.1, SVG Export Plug-In . SVG Version: 6.00 Build 0)  -->
<svg version="1.1" id="Capa_1" xmlns="http://www.w3.org/2000/svg" xmlns:xlink="http://www.w3.org/1999/xlink" x="0px" y="0px"
	 viewBox="0 0 32 32" style="enable-background:new 0 0 32 32;" xml:space="preserve">
<style type="text/css">
	.st0{fill:#FFFFFF;}
</style>
<g id="menu_">
	<path class="st0" d="M29,6H3C2.4,6,2,6.4,2,7s0.4,1,1,1h26c0.6,0,1-0.4,1-1S29.6,6,29,6z"/>
	<path class="st0" d="M3,17h13c0.6,0,1-0.4,1-1c0-0.6-0.4-1-1-1H3c-0.6,0-1,0.4-1,1C2,16.6,2.4,17,3,17z"/>
	<path class="st0" d="M25,24H3c-0.6,0-1,0.4-1,1s0.4,1,1,1h22c0.6,0,1-0.4,1-1S25.6,24,25,24z"/>
</g>
</svg>
